<?xml version="1.0" encoding="UTF-8" standalone="no"?>
<!-- Created with Inkscape (http://www.inkscape.org/) -->

<svg
   width="69.625954mm"
   height="110.51365mm"
   viewBox="0 0 69.625954 110.51365"
   version="1.1"
   id="svg5"
   xml:space="preserve"
   sodipodi:docname="bmc.svg"
   inkscape:export-filename="bmc.svg"
   inkscape:export-xdpi="72.961304"
   inkscape:export-ydpi="72.961304"
   xmlns:inkscape="http://www.inkscape.org/namespaces/inkscape"
   xmlns:sodipodi="http://sodipodi.sourceforge.net/DTD/sodipodi-0.dtd"
   xmlns="http://www.w3.org/2000/svg"
   xmlns:svg="http://www.w3.org/2000/svg"><sodipodi:namedview
     id="namedview7"
     pagecolor="#ffffff"
     bordercolor="#000000"
     borderopacity="0.25"
     inkscape:showpageshadow="2"
     inkscape:pageopacity="0.0"
     inkscape:pagecheckerboard="0"
     inkscape:deskcolor="#d1d1d1"
     inkscape:document-units="mm"
     showgrid="false"
     inkscape:zoom="2.4587649"
     inkscape:cx="131.77348"
     inkscape:cy="208.64134"
     inkscape:window-width="3440"
     inkscape:window-height="1369"
     inkscape:window-x="3832"
     inkscape:window-y="345"
     inkscape:window-maximized="1"
     inkscape:current-layer="svg5" /><defs
     id="defs2" /><g
     id="layer1"
     transform="translate(-53.390527,-71.409201)"
     inkscape:export-filename=".\layer1.svg"
     inkscape:export-xdpi="58.369034"
     inkscape:export-ydpi="58.369034"><g
       id="g179"
       transform="translate(34.1897,-45.266677)"><path
         style="fill:#fd4f00;stroke-width:0.264583"
         d="m 25.787492,227.03542 c -2.539246,-0.84034 -4.459777,-2.55811 -5.658614,-5.06121 l -0.823677,-1.7198 -0.08082,-10.17371 c -0.09379,-11.80536 -5.3e-4,-12.5628 2.068065,-16.81379 1.444487,-2.9683 3.315769,-5.39383 5.366057,-6.95542 0.757875,-0.57723 6.353531,-3.99674 12.434791,-7.59891 6.081263,-3.60217 11.022357,-6.64828 10.980209,-6.76914 -0.04215,-0.12086 -5.136788,-3.21648 -11.321423,-6.87917 -6.184636,-3.66269 -11.861006,-7.18124 -12.614155,-7.819 -2.577521,-2.18262 -4.89208,-5.82518 -6.196158,-9.75125 -0.591593,-1.78107 -0.618879,-2.23255 -0.711552,-11.77396 -0.06657,-6.85342 -7.94e-4,-10.41011 0.212341,-11.50056 0.602509,-3.08111 2.401213,-5.54265 4.97101,-6.80286 1.675879,-0.82185 5.046426,-0.99066 7.005301,-0.35087 2.151028,0.70255 52.896417,30.95112 54.475587,32.47208 0.78287,0.754 1.61693,1.93177 2.10179,2.9679 0.68919,1.47276 0.80387,2.02548 0.80387,3.87449 0,1.87141 -0.10718,2.37439 -0.81031,3.80264 -1.24009,2.51898 -2.86666,3.82937 -9.87586,7.95611 -3.45332,2.03317 -6.281058,3.75969 -6.283857,3.8367 -0.0028,0.077 2.813527,1.80342 6.258507,3.83646 6.66052,3.93068 8.54948,5.38564 9.67364,7.45109 1.3578,2.49473 1.42228,5.8902 0.16153,8.50582 -1.28904,2.67432 -1.76483,2.98756 -29.066174,19.13617 -14.186728,8.39139 -26.270302,15.45775 -26.852385,15.70303 -1.181323,0.49779 -5.175199,0.77218 -6.217708,0.42717 z m 27.503593,-25.39315 c 12.725236,-7.54454 23.170219,-13.82509 23.211069,-13.95677 0.0615,-0.19831 -7.898642,-5.05728 -13.965808,-8.52486 l -1.534668,-0.87712 -13.704488,8.09941 c -9.971804,5.89338 -13.982586,8.40231 -14.72551,9.21149 -1.261885,1.37442 -2.128271,3.05886 -2.517947,4.89542 -0.332464,1.56691 -0.420555,14.86979 -0.09846,14.86979 0.109463,0 10.61058,-6.17281 23.335816,-13.71735 z M 68.832808,161.1023 c 4.192315,-2.48361 7.701836,-4.59697 7.798926,-4.69635 0.14073,-0.14404 -45.439099,-27.46208 -46.359865,-27.78555 -0.154535,-0.0543 -0.251044,2.81536 -0.251044,7.46456 0,12.04755 -1.207428,10.53565 17.065625,21.36897 7.567083,4.4862 13.8406,8.15837 13.941149,8.16037 0.100553,0.002 3.612896,-2.02839 7.805209,-4.512 z"
         id="path185" /></g></g></svg>
