<?xml version="1.0" encoding="UTF-8" standalone="no"?>
<!-- Created with Inkscape (http://www.inkscape.org/) -->

<svg
   width="64"
   height="64"
   viewBox="0 0 16.933333 16.933333"
   version="1.1"
   id="svg5"
   xml:space="preserve"
   inkscape:version="1.2.1 (9c6d41e410, 2022-07-14)"
   sodipodi:docname="dnstwister.svg"
   xmlns:inkscape="http://www.inkscape.org/namespaces/inkscape"
   xmlns:sodipodi="http://sodipodi.sourceforge.net/DTD/sodipodi-0.dtd"
   xmlns="http://www.w3.org/2000/svg"
   xmlns:svg="http://www.w3.org/2000/svg"><sodipodi:namedview
     id="namedview7"
     pagecolor="#ffffff"
     bordercolor="#000000"
     borderopacity="0.25"
     inkscape:showpageshadow="2"
     inkscape:pageopacity="0.0"
     inkscape:pagecheckerboard="0"
     inkscape:deskcolor="#d1d1d1"
     inkscape:document-units="mm"
     showgrid="false"
     inkscape:zoom="14.638496"
     inkscape:cx="42.559017"
     inkscape:cy="35.727714"
     inkscape:window-width="3440"
     inkscape:window-height="1369"
     inkscape:window-x="3832"
     inkscape:window-y="345"
     inkscape:window-maximized="1"
     inkscape:current-layer="layer1" /><defs
     id="defs2" /><g
     inkscape:label="Layer 1"
     inkscape:groupmode="layer"
     id="layer1"><path
       style="fill:#00b8ec;fill-opacity:1;stroke-width:0.134634"
       d="M 3.3679744,11.549743 C 3.132919,11.289896 3.1114982,11.030271 3.1114982,8.4411993 c 0,-3.5141097 -0.1117585,-3.3396292 2.1391024,-3.3396292 1.7767128,0 1.8717531,0.04614 2.6573822,1.2900956 0.3001329,0.4752266 0.5634414,0.8640484 0.5851303,0.8640484 0.021689,0 0.2978644,-0.3966537 0.6137233,-0.8814526 0.8122818,-1.246738 0.8663468,-1.2726914 2.6511946,-1.2726914 2.169506,0 2.05687,-0.1826761 2.05687,3.3358931 0,3.5996598 0.119893,3.3958078 -1.997187,3.3958078 -1.8547568,0 -1.9204598,-0.03074 -2.7688901,-1.295453 C 8.4650233,9.6675752 8.4650233,9.6675752 8.0198627,10.38018 c -0.914488,1.463893 -0.8939805,1.453091 -2.7585428,1.453091 -1.4933617,0 -1.6593553,-0.02486 -1.8933455,-0.283528 z m 3.25907,-1.298422 C 6.7079773,10.121736 6.9923312,9.6747167 7.2589419,9.2579458 7.7436888,8.5001806 7.7436888,8.5001806 7.0767599,7.4740453 6.4098309,6.4479101 6.4098309,6.4479101 5.467493,6.4479101 c -0.9423378,0 -0.9423378,0 -0.9423378,2.01951 0,2.0195109 0,2.0195109 0.9773692,2.0195109 0.7850145,0 1.0063298,-0.04637 1.12452,-0.23561 z M 12.468561,8.4674201 c 0,-2.01951 0,-2.01951 -0.976096,-2.018827 -0.976097,6.866e-4 -0.976097,6.866e-4 -1.6153928,1.0156415 -0.6392962,1.0149583 -0.6392962,1.0149583 0,2.0185648 0.6392958,1.0036066 0.6392958,1.0036066 1.6153928,1.0038686 0.976096,2.63e-4 0.976096,2.63e-4 0.976096,-2.0192479 z m -1.750242,1.3463405 c 0,-0.07405 0.272634,-0.1346345 0.605853,-0.1346345 0.333219,0 0.605853,0.060588 0.605853,0.1346345 0,0.07405 -0.272634,0.134634 -0.605853,0.134634 -0.333219,0 -0.605853,-0.06059 -0.605853,-0.134634 z m -0.44878,-0.7629265 c -0.230605,-0.2306048 -0.02175,-0.314146 0.785365,-0.314146 0.688129,0 0.875121,0.043152 0.875121,0.201951 0,0.1564319 -0.177019,0.201951 -0.785365,0.201951 -0.431951,0 -0.825755,-0.04039 -0.875121,-0.089756 z m -0.08976,-0.987316 c 0,-0.075947 0.381463,-0.134634 0.875121,-0.134634 0.493658,0 0.875121,0.058687 0.875121,0.134634 0,0.075947 -0.381463,0.134634 -0.875121,0.134634 -0.493658,0 -0.875121,-0.058687 -0.875121,-0.134634 z m 0.605853,-0.942438 c 0.04576,-0.074049 0.321974,-0.134634 0.613799,-0.134634 0.291824,0 0.53059,0.060585 0.53059,0.134634 0,0.074049 -0.276209,0.134634 -0.613799,0.134634 -0.374915,0 -0.581415,-0.052398 -0.53059,-0.134634 z"
       id="path2320"
       sodipodi:nodetypes="ssssssssssssssssssssscssssssssssssssssssscsssc" /><path
       style="fill:#00b8ec;fill-opacity:1;stroke-width:0.0180745"
       d="M 4.5222942,11.815166 C 3.7432191,11.796449 3.6030251,11.765864 3.4095729,11.572412 3.1429978,11.305836 3.1267021,11.126319 3.1239822,8.4262332 c -0.00198,-1.9761305 0.00439,-2.1797496 0.080408,-2.5665773 0.066955,-0.3407016 0.2165649,-0.5558184 0.4466836,-0.642266 0.253633,-0.095281 0.2940926,-0.098028 1.4496037,-0.098422 1.1600984,-3.968e-4 1.3370753,0.00974 1.6262177,0.093179 0.2155381,0.062195 0.3493993,0.1389076 0.5109803,0.29283 C 7.4201902,5.6786507 7.5424854,5.8451636 7.9299,6.4472132 8.3082195,7.035129 8.463772,7.2597184 8.4929317,7.2601285 8.5210585,7.2605254 8.6462207,7.0841899 9.127769,6.3657416 9.3476496,6.0376898 9.5769272,5.7102264 9.6372752,5.6380456 9.9271443,5.2913401 10.208962,5.1700591 10.821253,5.1285179 c 0.354544,-0.024053 1.831854,-0.024252 2.072133,-2.645e-4 0.574761,0.057349 0.762654,0.2456344 0.856148,0.8579363 0.04861,0.318381 0.06725,1.2674007 0.05768,2.9371046 -0.0093,1.6161497 -0.01923,1.8745847 -0.0849,2.2015587 -0.06453,0.321351 -0.201534,0.521198 -0.411825,0.600751 -0.243797,0.09223 -0.320419,0.09759 -1.368618,0.09576 -1.05421,-0.0018 -1.35432,-0.01806 -1.631019,-0.08818 C 10.07488,11.673395 9.9111132,11.581917 9.7299678,11.408714 9.5524122,11.238943 9.4166741,11.060982 9.0385427,10.50221 8.8857631,10.276445 8.7118085,10.040302 8.6519772,9.9774477 8.5515639,9.8719618 8.5372555,9.8631676 8.4660394,9.8631676 c -0.067775,0 -0.086842,0.00997 -0.1568637,0.082016 -0.043841,0.045109 -0.1830761,0.2464134 -0.3094122,0.4473434 -0.4144476,0.659155 -0.5435151,0.840731 -0.7290102,1.025593 -0.095065,0.09474 -0.2136907,0.193874 -0.2636136,0.220297 -0.1399397,0.07407 -0.3789413,0.135713 -0.6064134,0.15641 -0.2917002,0.02654 -1.2077038,0.03646 -1.8784321,0.02035 z m 1.7339654,-1.355022 c 0.1526291,-0.02686 0.2807758,-0.08331 0.334754,-0.147461 C 6.6772011,10.210255 7.4579407,8.9650233 7.5301397,8.8148347 7.5982781,8.6730924 7.6038944,8.6500104 7.6027003,8.5166056 7.6005837,8.2812315 7.5170526,8.1197836 6.9713963,7.2965778 6.6341147,6.7877369 6.4900462,6.6190497 6.3240413,6.5386024 6.1533216,6.4558703 6.0348914,6.4438821 5.4519951,6.4503292 L 4.9289702,6.456113 4.8253744,6.5046656 C 4.6457371,6.5888571 4.5784737,6.7466932 4.5407886,7.172457 c -0.02363,0.2669643 -0.02363,2.312884 0,2.5798486 0.045386,0.5127654 0.1489874,0.6757594 0.4604795,0.7244604 0.1428403,0.02233 1.1061456,0.0096 1.2549915,-0.01662 z m 5.8537974,-0.0081 c 0.138629,-0.04415 0.227389,-0.139597 0.273787,-0.2944 0.07088,-0.2364945 0.07744,-0.3485562 0.08618,-1.4728514 0.0129,-1.6594526 -0.0181,-1.9573759 -0.221058,-2.1246714 -0.114013,-0.093979 -0.155998,-0.1002358 -0.727079,-0.1083577 -0.575546,-0.00819 -0.72972,0.0051 -0.885466,0.076293 C 10.420146,6.6268883 10.28617,6.790704 9.8473451,7.4928473 9.5233568,8.0112465 9.430782,8.1937812 9.3995815,8.3757282 9.3608095,8.6018306 9.4343451,8.7958805 9.7508246,9.3026044 10.29427,10.17273 10.464587,10.372688 10.721844,10.44262 c 0.154216,0.04192 0.29983,0.05017 0.795277,0.04506 0.40642,-0.0042 0.514532,-0.0107 0.592936,-0.03567 z"
       id="path2694" /><path
       style="fill:#00b8ec;fill-opacity:1;stroke-width:0.0180745"
       d="m 10.977069,9.9150783 c -0.05348,-0.00888 -0.13481,-0.03289 -0.180745,-0.053351 l -0.08352,-0.037201 0.04211,-0.034459 c 0.05879,-0.048099 0.143823,-0.069135 0.372816,-0.092226 0.313141,-0.031576 0.756371,0.02817 0.782124,0.1054272 0.01236,0.037087 -0.07793,0.07964 -0.224362,0.1057425 -0.156089,0.027823 -0.556783,0.031255 -0.708429,0.00607 z"
       id="path2696" /><path
       style="fill:#00b8ec;fill-opacity:1;stroke-width:0.0180745"
       d="M 10.821253,9.1218765 C 10.451186,9.1038028 10.31031,9.0761742 10.247977,9.0094469 10.14762,8.9020152 10.198567,8.8280128 10.403213,8.7839602 c 0.160434,-0.034535 0.823932,-0.049853 1.102486,-0.025453 0.2687,0.023537 0.382718,0.062276 0.401309,0.1363469 0.02977,0.1185998 -0.04036,0.1796982 -0.23805,0.2074048 -0.179854,0.025207 -0.555337,0.033896 -0.847705,0.019616 z"
       id="path2698" /><path
       style="fill:#00b8ec;fill-opacity:1;stroke-width:0.0180745"
       d="m 10.523403,8.1629816 c -0.182509,-0.022609 -0.325719,-0.065715 -0.325719,-0.098043 0,-0.06949 0.36312,-0.1203246 0.858538,-0.1201899 0.378343,1.032e-4 0.609031,0.020188 0.765468,0.066645 0.142945,0.04245 0.117423,0.082646 -0.08111,0.1277506 -0.148363,0.033706 -1.002471,0.050433 -1.217175,0.023836 z"
       id="path2700" /><path
       style="fill:#00b8ec;fill-opacity:1;stroke-width:0.0180745"
       d="m 10.965849,7.2238036 c -0.112265,-0.022656 -0.171707,-0.050332 -0.171707,-0.079948 0,-0.059966 0.217335,-0.124801 0.488011,-0.145583 0.272514,-0.020923 0.632607,0.049709 0.632607,0.1240859 0,0.033592 -0.118235,0.077872 -0.271117,0.101537 -0.136892,0.021191 -0.572631,0.02113 -0.677794,-9.19e-5 z"
       id="path2702" /></g></svg>
