<svg width="49" height="49" xmlns="http://www.w3.org/2000/svg" xmlns:xlink="http://www.w3.org/1999/xlink" xml:space="preserve" overflow="hidden"><defs><clipPath id="clip0"><rect x="238" y="138" width="49" height="49"/></clipPath></defs><g clip-path="url(#clip0)" transform="translate(-238 -138)"><path d="M278.736 185.053 246.264 185.053C245.69 185.053 245.225 184.588 245.225 184.014L245.225 144.73C245.225 144.156 245.69 143.69 246.264 143.689L278.736 143.689C279.31 143.69 279.775 144.156 279.775 144.73L279.775 184.014C279.775 184.588 279.31 185.053 278.736 185.053ZM247.302 182.975 277.698 182.975 277.698 145.769 247.302 145.769Z"/><path d="M266.884 145.608 258.116 145.608 258.08 144.656C258.07 144.589 258.065 144.522 258.064 144.454 258.064 142.005 260.05 140.019 262.5 140.019 264.95 140.019 266.936 142.005 266.936 144.454 266.936 144.523 266.93 144.591 266.92 144.658ZM260.264 143.566 264.736 143.566C264.295 142.331 262.938 141.687 261.703 142.127 261.032 142.367 260.504 142.895 260.264 143.566Z"/><path d="M269.357 150.842 255.142 150.842C254.712 150.842 254.328 150.571 254.183 150.166L252.437 145.317C252.246 144.786 252.522 144.201 253.052 144.01 253.583 143.819 254.168 144.095 254.359 144.625L255.865 148.8 268.707 148.8 270.667 144.531C270.886 144.011 271.485 143.768 272.004 143.987 272.524 144.206 272.767 144.805 272.548 145.324 272.539 145.345 272.53 145.366 272.519 145.386L270.284 150.25C270.117 150.611 269.755 150.842 269.357 150.842Z"/><path d="M253.509 156.913 271.488 156.913 271.488 158.955 253.509 158.955Z" fill="#94B2C9"/><path d="M253.509 163.056 271.488 163.056 271.488 165.098 253.509 165.098Z" fill="#94B2C9"/><path d="M253.509 169.11 271.488 169.11 271.488 171.152 253.509 171.152Z" fill="#94B2C9"/></g></svg>