<?xml version="1.0" encoding="UTF-8" standalone="no"?>
<!-- Created with Inkscape (http://www.inkscape.org/) -->

<svg
   width="64"
   height="64"
   viewBox="0 0 16.933333 16.933333"
   version="1.1"
   id="svg5"
   xml:space="preserve"
   inkscape:version="1.2.1 (9c6d41e410, 2022-07-14)"
   sodipodi:docname="godaddy.svg"
   xmlns:inkscape="http://www.inkscape.org/namespaces/inkscape"
   xmlns:sodipodi="http://sodipodi.sourceforge.net/DTD/sodipodi-0.dtd"
   xmlns="http://www.w3.org/2000/svg"
   xmlns:svg="http://www.w3.org/2000/svg"><sodipodi:namedview
     id="namedview7"
     pagecolor="#ffffff"
     bordercolor="#000000"
     borderopacity="0.25"
     inkscape:showpageshadow="2"
     inkscape:pageopacity="0.0"
     inkscape:pagecheckerboard="0"
     inkscape:deskcolor="#d1d1d1"
     inkscape:document-units="mm"
     showgrid="false"
     inkscape:zoom="5.1754899"
     inkscape:cx="68.302713"
     inkscape:cy="73.229782"
     inkscape:window-width="3440"
     inkscape:window-height="1369"
     inkscape:window-x="3832"
     inkscape:window-y="345"
     inkscape:window-maximized="1"
     inkscape:current-layer="layer1" /><defs
     id="defs2" /><g
     inkscape:label="Layer 1"
     inkscape:groupmode="layer"
     id="layer1"><path
       style="fill:#000000;stroke-width:0.252736"
       d="M 5.8738172,14.262605 C 3.3922712,13.025998 1.6750656,10.306842 1.6549276,7.5820894 1.6278924,3.9241058 4.0876488,2.093982 7.2533662,3.416703 8.0838491,3.7637011 8.2768269,3.7605705 9.2625769,3.3841092 11.468873,2.5415172 13.579436,3.2277589 14.556351,5.1053596 c 0.624027,1.1993601 0.453418,3.6580943 -0.375396,5.4100364 -1.805772,3.817026 -5.1446557,5.32314 -8.3071378,3.747209 z m 3.9764646,-0.989972 c 0.6475432,-0.400204 1.0709302,-1.7558 0.9612942,-3.07786 C 10.750075,9.4531432 10.630351,8.7769513 10.545524,8.6921237 10.460696,8.6072963 10.054426,8.7777616 9.6427004,9.0709359 8.731885,9.7194934 8.4457663,9.7378037 8.2245414,9.1616913 8.0482757,8.7026617 8.2301243,8.5336411 10.129592,7.3910223 l 0.947842,-0.5701713 0.46377,1.202012 c 0.255074,0.6611069 0.457755,1.7991018 0.450402,2.528878 -0.0074,0.729776 0.01878,1.326865 0.05807,1.326865 0.03929,0 0.412152,-0.596561 0.828576,-1.325692 C 14.269107,8.1176194 14.130718,5.4959176 12.560786,4.538672 11.516941,3.9022011 11.019571,3.9191388 9.4625216,4.6441816 8.1066947,5.2755249 6.8242331,6.661896 6.1884572,8.1835217 5.6783568,9.4043636 5.6983108,11.855222 6.2244663,12.606415 c 0.7779269,1.110646 2.4188619,1.412156 3.6258155,0.666218 z M 5.1549338,7.7084575 C 5.3903809,7.1524377 5.9321851,6.26138 6.3589433,5.7283291 7.3042499,4.5475744 7.072085,4.1701494 5.4004623,4.1701494 c -0.974353,0 -1.2555432,0.1232622 -1.8828855,0.8253804 -0.6352499,0.7109679 -0.7367079,1.0262711 -0.7319266,2.2746266 0.0053,1.3853015 0.5884513,3.1670546 1.3307335,4.0659466 0.2498915,0.302615 0.3345726,0.09524 0.4584831,-1.122766 0.08359,-0.8216635 0.3446196,-1.9488596 0.580067,-2.5048795 z"
       id="path1582" /></g></svg>
