<?xml version="1.0" encoding="UTF-8" standalone="no"?>
<svg
   id="Layer_1"
   data-name="Layer 1"
   width="576"
   height="576"
   viewBox="0 0 576 576"
   version="1.1"
   sodipodi:docname="ibm.svg"
   inkscape:version="1.2.1 (9c6d41e410, 2022-07-14)"
   xmlns:inkscape="http://www.inkscape.org/namespaces/inkscape"
   xmlns:sodipodi="http://sodipodi.sourceforge.net/DTD/sodipodi-0.dtd"
   xmlns="http://www.w3.org/2000/svg"
   xmlns:svg="http://www.w3.org/2000/svg">
  <sodipodi:namedview
     id="namedview85"
     pagecolor="#ffffff"
     bordercolor="#000000"
     borderopacity="0.25"
     inkscape:showpageshadow="2"
     inkscape:pageopacity="0.0"
     inkscape:pagecheckerboard="0"
     inkscape:deskcolor="#d1d1d1"
     showgrid="false"
     inkscape:zoom="1.7829861"
     inkscape:cx="287.71957"
     inkscape:cy="287.71957"
     inkscape:window-width="3440"
     inkscape:window-height="1369"
     inkscape:window-x="3832"
     inkscape:window-y="345"
     inkscape:window-maximized="1"
     inkscape:current-layer="Layer_1" />
  <defs
     id="defs4">
    <style
       id="style2">
      .cls-1 {
        fill: #fff;
      }
    </style>
  </defs>
  <rect
     class="cls-1"
     width="576"
     height="576"
     id="rect6" />
  <g
     id="g82">
    <rect
       x="128"
       y="342.9495"
       width="62.2222"
       height="8.8889"
       id="rect8" />
    <rect
       x="128"
       y="325.9797"
       width="62.2222"
       height="8.8889"
       id="rect10" />
    <rect
       x="145.7777"
       y="309.01"
       width="26.6667"
       height="8.889"
       id="rect12" />
    <rect
       x="145.7777"
       y="292.0404"
       width="26.6667"
       height="8.8889"
       id="rect14" />
    <rect
       x="145.7777"
       y="275.0706"
       width="26.6667"
       height="8.8889"
       id="rect16" />
    <rect
       x="145.7777"
       y="258.101"
       width="26.6667"
       height="8.8889"
       id="rect18" />
    <rect
       x="128"
       y="241.1313"
       width="62.2222"
       height="8.8889"
       id="rect20" />
    <rect
       x="128"
       y="224.1617"
       width="62.2222"
       height="8.8889"
       id="rect22" />
    <path
       d="M199.1112,334.8686h94.842a33.7121,33.7121,0,0,0,3.576-8.8889h-98.418Z"
       id="path24" />
    <path
       d="M286.5286,292.04h-69.64v8.8888h77.0547A34.0754,34.0754,0,0,0,286.5286,292.04Z"
       id="path26" />
    <path
       d="M216.8889,275.0706V283.96h69.64a34.0774,34.0774,0,0,0,7.415-8.8889Z"
       id="path28" />
    <path
       d="M293.9532,241.1313h-94.842V250.02h98.418A33.7148,33.7148,0,0,0,293.9532,241.1313Z"
       id="path30" />
    <path
       d="M264.5656,224.1617H199.1112v8.8888h88.35A33.8138,33.8138,0,0,0,264.5656,224.1617Z"
       id="path32" />
    <rect
       x="216.8889"
       y="258.101"
       width="26.6667"
       height="8.8889"
       id="rect34" />
    <path
       d="M268.6061,266.99h28.71a33.9492,33.9492,0,0,0,1.189-8.8889h-29.899Z"
       id="path36" />
    <rect
       x="216.8889"
       y="309.01"
       width="26.6667"
       height="8.889"
       id="rect38" />
    <path
       d="M268.6061,309.01v8.889h29.899a33.9488,33.9488,0,0,0-1.189-8.889Z"
       id="path40" />
    <path
       d="M199.1112,351.75l65.4544.0879a33.6926,33.6926,0,0,0,22.8959-8.8888h-88.35Z"
       id="path42" />
    <polygon
       points="376.875 351.838 379.979 342.949 373.799 342.949 376.875 351.838"
       id="polygon44" />
    <polygon
       points="370.962 334.869 382.816 334.869 385.936 325.98 367.842 325.98 370.962 334.869"
       id="polygon46" />
    <polygon
       points="365.005 317.899 388.773 317.899 391.894 309.01 361.884 309.01 365.005 317.899"
       id="polygon48" />
    <polygon
       points="359.047 300.929 394.731 300.929 397.851 292.04 355.927 292.04 359.047 300.929"
       id="polygon50" />
    <polygon
       points="323.556 266.99 371.58 266.99 368.489 258.101 323.556 258.101 323.556 266.99"
       id="polygon52" />
    <polygon
       points="388.099 250.02 448 250.02 448 241.131 391.19 241.131 388.099 250.02"
       id="polygon54" />
    <polygon
       points="397.091 224.162 394 233.051 448 233.051 448 224.162 397.091 224.162"
       id="polygon56" />
    <rect
       x="305.7779"
       y="342.9495"
       width="44.4445"
       height="8.8889"
       id="rect58" />
    <rect
       x="305.7779"
       y="325.9797"
       width="44.4445"
       height="8.8889"
       id="rect60" />
    <rect
       x="323.5556"
       y="309.01"
       width="26.6667"
       height="8.889"
       id="rect62" />
    <rect
       x="323.5556"
       y="292.0404"
       width="26.6667"
       height="8.8889"
       id="rect64" />
    <polygon
       points="430.222 258.101 385.289 258.101 382.198 266.99 430.222 266.99 430.222 258.101"
       id="polygon66" />
    <polygon
       points="403.556 283.96 430.222 283.96 430.222 275.071 403.556 275.071 403.556 275.071 379.387 275.071 376.889 282.256 374.39 275.071 350.222 275.071 323.556 275.071 323.556 283.96 350.222 283.96 350.222 275.791 353.09 283.96 400.688 283.96 403.556 275.792 403.556 283.96"
       id="polygon68" />
    <rect
       x="403.5555"
       y="292.0404"
       width="26.6667"
       height="8.8889"
       id="rect70" />
    <rect
       x="403.5555"
       y="309.01"
       width="26.6667"
       height="8.889"
       id="rect72" />
    <rect
       x="403.5555"
       y="325.9797"
       width="44.4445"
       height="8.8889"
       id="rect74" />
    <rect
       x="403.5555"
       y="342.9495"
       width="44.4445"
       height="8.8889"
       id="rect76" />
    <polygon
       points="365.679 250.02 362.588 241.131 305.778 241.131 305.778 250.02 365.679 250.02"
       id="polygon78" />
    <polygon
       points="359.778 233.051 356.687 224.162 305.778 224.162 305.778 233.051 359.778 233.051"
       id="polygon80" />
  </g>
</svg>
