<?xml version="1.0" encoding="UTF-8" standalone="no"?>
<!-- Created with Inkscape (http://www.inkscape.org/) -->

<svg
   width="64"
   height="64"
   viewBox="0 0 16.933333 16.933333"
   version="1.1"
   id="svg5"
   xml:space="preserve"
   inkscape:version="1.2.1 (9c6d41e410, 2022-07-14)"
   sodipodi:docname="jinja2.svg"
   xmlns:inkscape="http://www.inkscape.org/namespaces/inkscape"
   xmlns:sodipodi="http://sodipodi.sourceforge.net/DTD/sodipodi-0.dtd"
   xmlns="http://www.w3.org/2000/svg"
   xmlns:svg="http://www.w3.org/2000/svg"><sodipodi:namedview
     id="namedview7"
     pagecolor="#ffffff"
     bordercolor="#000000"
     borderopacity="0.25"
     inkscape:showpageshadow="2"
     inkscape:pageopacity="0.0"
     inkscape:pagecheckerboard="0"
     inkscape:deskcolor="#d1d1d1"
     inkscape:document-units="mm"
     showgrid="false"
     inkscape:zoom="10.35098"
     inkscape:cx="5.8448573"
     inkscape:cy="37.870811"
     inkscape:window-width="3440"
     inkscape:window-height="1369"
     inkscape:window-x="3832"
     inkscape:window-y="345"
     inkscape:window-maximized="1"
     inkscape:current-layer="layer1" /><defs
     id="defs2" /><g
     inkscape:label="Layer 1"
     inkscape:groupmode="layer"
     id="layer1"><rect
       style="fill:#ffffff;stroke-width:1.83488"
       id="rect4110"
       width="16.933334"
       height="16.933332"
       x="-2.220446e-16"
       y="2.6645353e-15" /><path
       style="fill:#000000;stroke-width:0.0399371"
       d="m 9.1925363,14.590535 c -0.076879,-0.02103 -0.2565959,-0.05064 -0.3993711,-0.0658 L 8.533574,14.497165 8.522548,13.887812 C 8.512473,13.331009 8.504724,13.274213 8.432689,13.229227 8.365257,13.187117 8.353857,13.135387 8.353857,12.871511 c 0,-0.263439 0.011209,-0.314484 0.07676,-0.349566 0.203347,-0.108826 0.2027998,-0.105864 0.2027998,-1.098515 0,-0.999721 0.00414,-0.97988 -0.2043981,-0.97988 -0.072888,0 -0.077298,-0.02575 -0.066624,-0.389078 l 0.01143,-0.3890786 0.1198113,-0.02067 c 0.1160349,-0.02002 0.1198114,-0.02757 0.1198114,-0.239538 0,-0.2118163 -0.00385,-0.219537 -0.1194771,-0.239565 C 8.3991641,9.1492006 8.3702329,9.1203261 8.3538571,9.0257846 8.3374697,8.9311768 8.3086159,8.9024221 8.2137429,8.8861493 8.1194087,8.8699696 8.0916065,8.8425847 8.081629,8.7560195 8.073559,8.6860445 8.088009,8.6458921 8.121566,8.6450271 c 0.028916,-7.469e-4 0.1244608,-0.036079 0.2123224,-0.078519 0.087862,-0.04244 0.2136635,-0.078345 0.2795598,-0.079789 0.065896,-0.00145 0.1546967,-0.029012 0.1973344,-0.061261 0.042638,-0.03225 0.1245682,-0.058636 0.1820681,-0.058636 0.0575,0 0.1394304,0.026386 0.182068,0.058636 0.042638,0.032249 0.1404241,0.059318 0.217303,0.060152 0.076879,8.347e-4 0.1899613,0.027691 0.2512939,0.059682 0.061333,0.031992 0.1736557,0.069825 0.2496069,0.084073 0.075951,0.014249 0.1380935,0.032198 0.1380935,0.039887 0,0.055747 -0.3521053,0.3450825 -0.4417705,0.3630155 -0.2037623,0.040752 -0.2825526,0.1538633 -0.2690834,0.3862948 l 0.011954,0.206279 0.3433429,0.01145 c 0.399765,0.01333 0.406299,0.0089 0.495144,-0.3379237 0.04838,-0.1888322 0.05936,-0.4295231 0.05091,-1.1153374 L 10.210933,7.3084892 9.9114042,7.2956737 c -0.1647405,-0.00705 -0.5511321,0.015028 -0.8586478,0.04906 -0.3075157,0.034031 -0.8915959,0.080958 -1.2979559,0.1042825 -0.4063601,0.023324 -0.8556525,0.059294 -0.9984277,0.079933 -0.1427751,0.020639 -0.3503483,0.037886 -0.4612736,0.038328 -0.1109253,4.433e-4 -0.2232484,0.022369 -0.2496069,0.048728 -0.070112,0.070111 -0.068223,2.0908272 0.002,2.1362742 0.027457,0.01777 0.1748638,0.06295 0.3275713,0.100389 0.3246915,0.07961 0.3813123,0.05506 0.3813123,-0.16534 0,-0.169683 -0.1530905,-0.346304 -0.3194968,-0.368604 -0.07384,-0.0099 -0.1030209,-0.040781 -0.1120359,-0.1185768 -0.010362,-0.089415 0.013997,-0.1178736 0.1623731,-0.1897012 0.09601,-0.046477 0.2006061,-0.084504 0.2324355,-0.084504 0.03183,0 0.1268439,-0.036967 0.2111419,-0.082147 0.1652801,-0.088585 0.3411424,-0.078361 0.4267664,0.024809 0.026173,0.031536 0.1037941,0.057405 0.1724919,0.057488 0.1433359,1.598e-4 0.4004138,0.1414724 0.3641481,0.2001512 -0.013366,0.021627 -0.048276,0.039322 -0.077578,0.039322 -0.054133,0 -0.1017585,0.083664 -0.1017585,0.1787598 0,0.02883 -0.054838,0.11112 -0.1218629,0.18287 -0.1550359,0.165967 -0.1540287,0.361006 0.00205,0.397257 0.091578,0.02127 0.1008281,0.04376 0.1117461,0.2716626 0.00935,0.195081 -0.00138,0.25357 -0.049921,0.272197 -0.091425,0.03508 -0.093268,1.722915 -0.00192,1.757969 0.086141,0.03306 0.087173,0.674363 0.00114,0.707377 -0.047021,0.01804 -0.060991,0.132651 -0.06989,0.573377 L 7.5750798,14.05786 7.1849977,14.0693 c -0.4402,0.01291 -0.482997,-0.01402 -0.3729175,-0.234684 0.085301,-0.17099 0.1291242,-0.713589 0.067007,-0.829656 -0.043831,-0.0819 -0.071625,-0.08761 -0.3745754,-0.0769 l -0.327231,0.01156 -0.019969,0.638994 -0.019969,0.638994 -0.6589623,0.0099 c -0.3624292,0.0054 -0.6843926,-0.0064 -0.7154741,-0.0264 -0.047772,-0.03069 -0.042852,-0.07674 0.031815,-0.297796 0.064816,-0.191886 0.085174,-0.333687 0.07648,-0.532721 L 4.8593603,13.099369 H 4.3601464 c -0.5886696,0 -0.5659581,-0.02618 -0.4648028,0.535859 0.1104112,0.613469 0.1142159,0.681334 0.039799,0.709891 -0.036761,0.01411 -0.1763263,0.0017 -0.3101461,-0.02746 -0.1338199,-0.02921 -0.3241815,-0.06367 -0.4230259,-0.07658 l -0.1797169,-0.02347 -0.010996,-0.603767 c -0.00988,-0.542424 -0.019008,-0.611018 -0.089859,-0.675136 -0.058489,-0.05293 -0.078862,-0.122943 -0.078862,-0.271 0,-0.181698 0.01435,-0.212878 0.1597484,-0.347109 l 0.1597481,-0.14748 V 11.36785 c 0,-0.755846 -0.0049,-0.809465 -0.079874,-0.873659 -0.05609,-0.04803 -0.079874,-0.117812 -0.079874,-0.23436 0,-0.125675 -0.020907,-0.179852 -0.086111,-0.223146 -0.065872,-0.04374 -0.080055,-0.08131 -0.060343,-0.1598476 0.014173,-0.05647 0.060079,-0.111644 0.1020125,-0.12261 0.041934,-0.01097 0.1074691,-0.06759 0.1456336,-0.125841 C 3.1908155,9.4950914 3.1426429,9.2879653 3.0087815,9.221228 2.9222266,9.178076 2.8912208,9.151693 2.6652265,8.9288988 2.5479606,8.8132933 2.5656588,8.7661934 2.7263648,8.7661934 c 0.065305,0 0.1855537,-0.02837 0.2672185,-0.063044 0.1917252,-0.081405 0.5536499,-0.081702 0.7076009,-5.791e-4 0.065896,0.034723 0.1793806,0.063243 0.2521876,0.063379 0.1417278,2.796e-4 0.5265859,0.1482609 0.5265859,0.2024991 0,0.017968 -0.076299,0.047758 -0.1695529,0.0662 -0.1463789,0.028947 -0.1723529,0.049692 -0.1900357,0.1517796 -0.016211,0.093591 -0.045396,0.1225644 -0.1399595,0.1389444 -0.1139515,0.019737 -0.119477,0.02991 -0.119477,0.219987 v 0.199293 H 4.4999263 5.13892 L 5.149557,8.676335 c 0.00585,-0.5875747 0.00585,-1.0718268 0,-1.0761157 -0.00585,-0.00429 -0.3610846,-0.017768 -0.7894101,-0.029953 L 3.5813729,7.5481113 V 7.1819225 c 0,-0.201404 0.015114,-0.381121 0.033587,-0.3993711 0.018473,-0.01825 0.3185999,-0.027197 0.666949,-0.019882 L 4.915271,6.7759686 5.0963087,6.5829522 C 5.3000239,6.3657578 5.3223715,6.252269 5.1888414,6.1130382 5.1070342,6.0277386 5.0560425,6.0174799 4.6197376,5.9985474 3.9748968,5.970565 3.6260467,5.8803255 3.5242388,5.7151664 3.482208,5.6469814 3.4351235,5.5403342 3.4196064,5.4781725 3.3917262,5.366484 3.3196016,5.3178438 3.1189586,5.2754182 3.0607167,5.2631032 2.995867,5.209504 2.9696854,5.1520413 2.9081022,5.016881 2.7757799,4.9724234 2.4305811,4.9709138 2.1672197,4.9697596 2.1373176,4.9609962 2.0667451,4.8642597 L 1.9898532,4.7588613 2.1865564,4.5867767 C 2.2947432,4.4921307 2.3947901,4.4143223 2.408883,4.4138706 2.422976,4.4134193 2.445847,4.3678656 2.459707,4.3126413 2.476454,4.2459173 2.451107,4.1407923 2.384162,3.9992752 2.328752,3.882148 2.2834165,3.7726062 2.2834165,3.7558481 c 0,-0.037129 0.2124246,-0.00814 0.3893868,0.053137 0.3285495,0.113768 0.399549,0.1360533 0.5491352,0.1723601 0.087862,0.021325 0.2136635,0.057436 0.2795597,0.080246 0.065896,0.02281 0.2456132,0.058122 0.3993711,0.07847 0.3786025,0.050105 2.6384397,6.749e-4 2.995283,-0.065517 0.1537578,-0.028521 0.5401493,-0.054582 0.8586478,-0.057914 0.3279962,-0.00343 0.7002001,-0.031308 0.8584061,-0.064293 0.1536249,-0.03203 0.4771155,-0.069133 0.718868,-0.082453 0.2417524,-0.013319 0.5409884,-0.049315 0.6649684,-0.079992 0.1239804,-0.030676 0.3312794,-0.055775 0.4606624,-0.055775 0.132865,0 0.334144,-0.034761 0.462499,-0.079874 0.12499,-0.043931 0.291498,-0.079874 0.370017,-0.079874 0.07852,0 0.19129,-0.024432 0.250604,-0.054294 0.05931,-0.029862 0.194408,-0.065626 0.300209,-0.079476 0.105801,-0.01385 0.231109,-0.052318 0.278462,-0.085486 0.04735,-0.033168 0.136078,-0.060305 0.197166,-0.060305 0.06109,0 0.178133,-0.035943 0.260098,-0.079874 0.08197,-0.043931 0.186296,-0.079874 0.231845,-0.079874 0.04555,0 0.117702,-0.026386 0.16034,-0.058635 0.04264,-0.03225 0.113732,-0.059207 0.157989,-0.059906 0.04426,-6.985e-4 0.147528,-0.037214 0.229493,-0.081144 0.08197,-0.043931 0.176116,-0.079874 0.209223,-0.079874 0.03311,0 0.127257,-0.035943 0.209223,-0.079874 0.08197,-0.043931 0.170302,-0.079874 0.196304,-0.079874 0.026,0 0.09816,-0.02476 0.16034,-0.055022 0.06218,-0.030262 0.175964,-0.082447 0.252843,-0.1159667 0.07688,-0.033519 0.221834,-0.098618 0.322122,-0.1446634 0.100288,-0.046045 0.194639,-0.083719 0.209669,-0.083719 0.01503,0 0.02733,0.059738 0.02733,0.1327501 0,0.087641 -0.0475,0.1995562 -0.13978,0.3293534 -0.161773,0.2275367 -0.175948,0.3686197 -0.05991,0.5962298 0.04393,0.086168 0.08045,0.1843189 0.08114,0.2181141 6.99e-4,0.033795 0.02766,0.096331 0.05991,0.1389687 0.03225,0.042638 0.05864,0.1459749 0.05864,0.2296384 0,0.131419 -0.01231,0.1521152 -0.09045,0.1521152 -0.04975,0 -0.157513,0.035943 -0.239478,0.079874 -0.08197,0.043931 -0.204728,0.079874 -0.272806,0.079874 -0.06808,0 -0.171481,0.026438 -0.229784,0.058752 -0.0583,0.032314 -0.177891,0.077023 -0.265753,0.099353 -0.2736,0.069539 -0.402209,0.1768571 -0.536787,0.4479254 -0.129268,0.2603731 -0.294694,0.3920677 -0.493234,0.39266 -0.04852,1.597e-4 -0.142132,0.03597 -0.208028,0.079611 -0.10668,0.070651 -0.188284,0.079377 -0.744548,0.079611 -0.689343,2.904e-4 -0.673219,-0.00604 -0.673219,0.2643741 0,0.085618 -0.02268,0.1464685 -0.05991,0.1607548 -0.15067,0.057818 0.01561,0.3296273 0.20348,0.3326106 0.04602,7.308e-4 0.116197,0.037272 0.155954,0.081203 0.05852,0.064663 0.122445,0.079742 0.335671,0.079181 0.144862,-3.994e-4 0.380201,-0.025254 0.522977,-0.055272 0.389797,-0.081953 0.731294,-0.1107128 0.797336,-0.067149 0.06635,0.043769 0.07001,0.3144188 0.0059,0.4342673 -0.0219,0.040921 -0.05215,0.1673684 -0.06722,0.280995 l -0.02741,0.2065935 -0.284399,0.00215 c -0.156419,0.00119 -0.419186,0.01803 -0.583927,0.037436 -0.16474,0.019406 -0.479245,0.056425 -0.698899,0.082266 -0.219654,0.02584 -0.412575,0.067402 -0.428713,0.09236 -0.01614,0.024957 -0.02883,0.3059662 -0.0282,0.6244646 8.42e-4,0.4275331 0.01745,0.6208961 0.06344,0.7388364 0.03427,0.087862 0.07769,0.2855503 0.09649,0.4393081 0.03913,0.3199648 0.120412,0.5712278 0.201371,0.6224918 0.03061,0.01939 0.211633,0.03552 0.402262,0.03586 0.387231,6.84e-4 0.472113,-0.04221 0.472113,-0.238597 0,-0.164042 -0.03825,-0.240037 -0.120817,-0.240037 -0.139247,0 -0.198679,-0.047787 -0.198679,-0.1597484 0,-0.1077679 -0.05954,-0.1597484 -0.182984,-0.1597484 -0.08031,0 -0.224556,-0.1541585 -0.19261,-0.2058491 0.0165,-0.026696 0.09417,-0.033937 0.203424,-0.018963 0.125209,0.017162 0.242612,0.00107 0.402705,-0.055199 0.269293,-0.094649 0.51806,-0.1014474 0.714146,-0.019517 0.07886,0.032948 0.226546,0.060181 0.328199,0.060517 0.282614,9.345e-4 0.320281,0.047441 0.149072,0.1840485 -0.100037,0.07982 -0.143963,0.1470744 -0.143964,0.2204225 -1e-6,0.1060042 -0.06196,0.1540369 -0.19868,0.1540369 -0.140089,0 -0.169089,0.311163 -0.04094,0.439309 0.06524,0.06524 0.07987,0.133123 0.07987,0.3705266 0,0.241231 -0.01358,0.302282 -0.07987,0.359043 -0.07491,0.06414 -0.07987,0.117813 -0.07987,0.863387 v 0.794996 l 0.13978,0.122728 c 0.152933,0.134277 0.17119,0.184444 0.07987,0.219484 -0.04449,0.01707 -0.05991,0.08783 -0.05991,0.274957 0,0.207595 -0.01497,0.264783 -0.08498,0.324732 -0.07608,0.06514 -0.08227,0.09927 -0.05906,0.325739 0.01425,0.139137 0.0525,0.328307 0.08498,0.420379 0.08199,0.23238 0.07415,0.328954 -0.03505,0.431533 -0.08553,0.08035 -0.128297,0.08736 -0.469261,0.07685 l -0.375152,-0.01156 -0.01239,-0.459277 c -0.01013,-0.375518 2.39e-4,-0.483148 0.05681,-0.590176 0.04582,-0.08667 0.05579,-0.144302 0.02953,-0.170567 -0.06606,-0.06606 -0.54706,-0.09471 -0.651516,-0.03881 -0.08678,0.04644 -0.09093,0.06633 -0.06991,0.334607 0.01229,0.156876 0.05069,0.352045 0.08531,0.43371 0.100485,0.236995 0.0827,0.436685 -0.05024,0.564051 l -0.113199,0.108452 -0.575716,-0.01112 -0.575717,-0.01112 -0.011,-0.628502 c -0.01274,-0.727132 0.01888,-0.682538 -0.4691061,-0.661498 l -0.2787243,0.01202 -0.011823,0.270184 c -0.00851,0.194551 0.00546,0.29486 0.049921,0.358336 0.044316,0.06327 0.061744,0.187099 0.061744,0.4387 V 14.63695 L 9.462107,14.63285 C 9.390719,14.63065 9.2694104,14.61156 9.1925315,14.59053 Z m 0.9808107,-2.246799 c 0.07651,-0.05599 0.07653,-0.0603 0.0016,-0.329481 -0.05374,-0.193123 -0.08124,-0.45346 -0.09421,-0.891772 -0.01187,-0.401164 -0.03435,-0.629351 -0.06389,-0.648366 -0.055276,-0.03559 -0.3937696,-0.04003 -0.4816144,-0.0063 -0.055105,0.02115 -0.063172,0.143126 -0.063172,0.955162 0,0.707369 0.011988,0.935759 0.049921,0.951065 0.114314,0.04613 0.5762694,0.02465 0.6513294,-0.03028 z m 1.861224,-0.04882 c 0.102418,-0.03206 0.19677,-0.0858 0.20967,-0.119418 0.0129,-0.03362 0.02345,-0.408815 0.02345,-0.833775 0,-0.925577 0.0128,-0.898171 -0.419592,-0.898171 -0.399941,0 -0.499081,0.0415 -0.498529,0.208682 2.4e-4,0.07193 0.0272,0.219006 0.05991,0.326832 0.0403,0.132851 0.05947,0.373318 0.05947,0.745968 0,0.72457 0.01695,0.741648 0.565619,0.569882 z m -7.1365892,-0.09363 c 0.100638,-0.03826 0.1019048,-0.04296 0.042537,-0.157765 C 4.8598268,11.887479 4.8597418,11.206552 4.940399,10.982703 5.017654,10.768261 5.014033,10.652975 4.929263,10.62817 4.7303378,10.56996 4.1155833,10.479162 3.9970064,10.490476 l -0.1360738,0.01298 -0.010816,0.835808 c -0.00831,0.641984 9.537e-4,0.843278 0.039937,0.868021 0.072407,0.04596 0.8839815,0.04112 1.0079283,-0.006 z m 1.8144063,-0.01559 c 0.031794,-0.03831 0.04238,-0.302228 0.034843,-0.868632 L 6.7364041,10.50346 h -0.359434 -0.359434 l -0.010827,0.813604 c -0.00754,0.566404 0.00305,0.830322 0.034843,0.868632 0.031117,0.03749 0.1379987,0.05503 0.3354178,0.05503 0.1974191,0 0.3043008,-0.01754 0.3354182,-0.05503 z M 7.1357753,6.6195014 c 0.2551586,-0.063723 0.2806648,-0.079423 0.2922186,-0.1798715 0.00826,-0.071769 -0.00911,-0.1184079 -0.049921,-0.1340681 -0.034419,-0.013208 -0.06258,-0.064585 -0.06258,-0.1141725 0,-0.049587 -0.049747,-0.1471363 -0.1105495,-0.2167759 L 7.0943933,5.8479957 6.635839,5.8593745 6.1772848,5.8707534 6.1648156,5.9905647 c -0.00686,0.065896 -0.039159,0.1403865 -0.071781,0.1655337 -0.032621,0.025147 -0.062954,0.095996 -0.067405,0.1574425 -0.00698,0.09637 0.024831,0.1325756 0.231529,0.2635054 0.2694189,0.1706588 0.3497276,0.1745395 0.8786167,0.042455 z M 9.4057254,6.5368903 C 9.6432653,6.4900393 9.7711108,6.4450853 9.7966629,6.399426 9.817546,6.3621104 9.9149079,6.2845346 10.013023,6.2270355 10.22799,6.1010563 10.286117,5.953811 10.159785,5.8552646 c -0.0454,-0.035412 -0.0884,-0.1093146 -0.09557,-0.1642282 -0.01251,-0.095857 -0.02419,-0.099805 -0.2925907,-0.098889 -0.2877859,9.824e-4 -0.760307,0.085183 -0.8486635,0.1512278 -0.029832,0.022299 -0.049921,0.1298104 -0.049921,0.2671581 0,0.155583 -0.019355,0.2459055 -0.059906,0.2795597 -0.060488,0.0502 -0.082474,0.2436794 -0.033281,0.292872 0.043288,0.043288 0.249912,0.028077 0.6258726,-0.046075 z"
       id="path3784"
       sodipodi:nodetypes="cccssssssscssssscsscssssssssscscsccsssssscssssssscsssssccccccsssccccccsccssscscsssscscsssccssssscssssscccssscssscssssssscscssscsssscssssssssssssssssssssssssscscsssssscscsssssscssccccssscccccsssssssssssssssscsssccccscsccsscsccccsccsscccccssscscccssssssssssscscccssscscccccscsssssccccsssssssssssssss" /></g></svg>
